<?xml version="1.0" encoding="utf-8"?>
<!-- Generator: Adobe Illustrator 22.0.0, SVG Export Plug-In . SVG Version: 6.00 Build 0)  -->
<svg version="1.1" id="Calque_1" xmlns="http://www.w3.org/2000/svg" xmlns:xlink="http://www.w3.org/1999/xlink" x="0px" y="0px"
	 viewBox="0 0 289 57" style="enable-background:new 0 0 289 57;" xml:space="preserve">
<style type="text/css">
	.st0{fill:#A70805;}
</style>
<g>
	<g>
		<g>
			<path class="st0" d="M181.9,33.8c-0.8-0.6-1.9-1.2-3.4-1.9c-1.5-0.7-3.3-1.4-5.6-2.2c-2.3-0.8-4-1.6-5-2.3
				c-1-0.9-1.5-1.9-1.5-3.2c0-2.2,0.6-4.5,5.3-4.5c3,0,5.4,0.9,7.3,2.8l1.1,1.1l5.3-4.6l-1.2-1.2c-3.4-3.4-7.6-5.1-12.4-5.1
				c-3.6,0-6.7,1.2-8.9,3.4c-2.4,2.2-3.6,5-3.6,8.1c0,3.6,1.2,6.5,3.7,8.5c1.6,1.3,4,2.5,7.4,3.7c1.7,0.6,3.2,1.2,4.3,1.7
				c1.1,0.4,1.9,0.8,2.4,1.1c1.7,1.4,2.6,2.9,2.6,4.6c0,2.8-0.8,6.1-7.5,6.1c-2.4,0-4.3-0.5-5.6-1.5c-1.3-0.9-2.5-2.3-3.5-4.1
				l-0.8-1.5l-6.1,3.7l0.8,1.4c3.4,6.1,8.5,9.2,15.3,9.2c4,0,7.4-1.2,10.3-3.7c2.9-2.4,4.3-5.7,4.3-9.6
				C186.7,39.6,185.1,36.3,181.9,33.8z"/>
			<path class="st0" d="M225.3,39.7c0,7-3,10.3-9.5,10.3c-3.3,0-5.6-0.8-7.1-2.5c-1.4-1.8-2.2-4.4-2.2-7.8V13.2h-7.2v26.5
				c0,5.4,1.4,9.6,4.3,12.7c2.9,3.1,7,4.7,12.1,4.7c5.2,0,9.3-1.6,12.3-4.8c2.8-3.1,4.3-7.3,4.3-12.6V13.2h-7.1V39.7z"/>
			<path class="st0" d="M289,56.3V0l-7.2,4.8v13.3c-4.2-3.7-9.1-5.5-14.6-5.5c-6.2,0-11.5,2.2-15.8,6.5c-4.2,4.2-6.4,9.5-6.4,15.7
				s2.2,11.5,6.5,15.8c4.2,4.2,9.5,6.4,15.7,6.4c5.6,0,10.5-1.8,14.6-5.4L289,56.3z M277.9,45.5c-2.9,2.9-6.4,4.4-10.6,4.4
				c-4.2,0-7.6-1.5-10.6-4.5c-3-3-4.5-6.5-4.5-10.6c0-4.2,1.5-7.7,4.5-10.7c2.9-2.9,6.4-4.3,10.6-4.3c4.2,0,7.6,1.5,10.6,4.5
				c3,3,4.5,6.5,4.5,10.6C282.3,39,280.9,42.5,277.9,45.5z"/>
		</g>
		<g>
			<path class="st0" d="M22.3,12.3c-6.3,0-11.7,2.1-15.9,6.4C2.1,22.9,0,28.3,0,34.6c0,6.3,2.1,11.7,6.4,15.9
				c4.2,4.2,9.6,6.4,15.9,6.4c4.8,0,9.2-1.3,13.1-3.8l0.7-0.5v-9.4l-2.7,2.4c-3.2,2.8-6.8,4.2-11.1,4.2c-4.5,0-8.1-1.4-10.9-4.3
				c-2.9-2.9-4.3-6.4-4.3-10.9c0-4.6,1.4-8.2,4.3-11c2.8-2.8,6.4-4.2,10.9-4.2c2,0,4.2,0.4,6.2,1.1l2.6,1.4l5,3.3v-8.5l-0.6-0.5
				C32.2,13.6,27.7,12.3,22.3,12.3z"/>
			<path class="st0" d="M85.6,4.8v13.1c-4.2-3.7-9.1-5.5-14.6-5.5c-6.2,0-11.5,2.2-15.8,6.5c-4.2,4.2-6.4,9.5-6.4,15.7
				c0,6.2,2.2,11.5,6.5,15.8c4.2,4.2,9.5,6.4,15.7,6.4c5.7,0,10.6-1.8,14.6-5.4l0,0l7.2,4.8V0L85.6,4.8z M70.9,19.5
				c4.2,0,7.7,1.5,10.7,4.5c3,3,4.5,6.5,4.5,10.7c0,4.2-1.5,7.8-4.5,10.8c-2.9,2.9-6.4,4.4-10.7,4.4c-4.2,0-7.7-1.5-10.7-4.5
				c-3-3-4.5-6.5-4.5-10.7c0-4.2,1.5-7.7,4.5-10.8C63.2,20.9,66.7,19.5,70.9,19.5z"/>
		</g>
		<path class="st0" d="M126.9,43.9h9.7c1.1,0,1.8-1.2,1.2-2.1l-9.7-16.4c-0.6-0.9-1.9-0.9-2.5,0L116,41.7c-0.6,0.9,0.1,2.1,1.2,2.1
			H126.9z"/>
	</g>
</g>
</svg>
